<svg width="64" height="64" viewBox="0 0 64 64" fill="none" xmlns="http://www.w3.org/2000/svg">
<path d="M50.9849 64H1.67895C0.752069 64 0 63.2483 0 62.3211V1.67895C0 0.752069 0.751691 0 1.67895 0H62.3211C63.2479 0 64 0.751691 64 1.67895V28.0374C63.7568 27.2851 60.9087 18.6788 56.5075 14.308C51.9029 9.73503 43.5536 5.99322 44.7952 9.00075C46.0368 12.0083 46.0368 19.8425 46.0368 19.8425L33.5355 24.7061L31.6604 31.7801L16.3607 35.8946C16.3607 35.8946 17.451 43.8543 21.8486 45.2455C24.6694 46.1378 43.1589 48.2183 43.1589 48.2183L39.6488 64H50.9849Z" fill="#EEB336"/>
</svg>
