<svg width="100" height="100" viewBox="0 0 100 100" fill="none" xmlns="http://www.w3.org/2000/svg">
<path d="M79.664 100H2.62336C1.17511 100 0 98.8255 0 97.3766V2.62336C0 1.17511 1.17452 0 2.62336 0H97.3766C98.8249 0 100 1.17452 100 2.62336V43.8084C99.62 42.633 95.1698 29.1857 88.293 22.3562C81.0982 15.211 68.0525 9.36441 69.9925 14.0637C71.9324 18.7629 71.9324 31.0039 71.9324 31.0039L52.3992 38.6032L49.4694 49.6564L25.5636 56.0853C25.5636 56.0853 27.2672 68.5224 34.1385 70.6961C38.546 72.0903 67.4358 75.3411 67.4358 75.3411L61.9513 100H79.664Z" fill="#2B2927"/>
</svg>
