<svg width="200" height="200" viewBox="0 0 200 200" fill="none" xmlns="http://www.w3.org/2000/svg">
<path d="M159.328 200H5.24671C2.35022 200 0 197.651 0 194.753V5.24671C0 2.35022 2.34903 0 5.24671 0H194.753C197.65 0 200 2.34903 200 5.24671V87.6169C199.24 85.2661 190.34 58.3713 176.586 44.7124C162.196 30.422 136.105 18.7288 139.985 28.1274C143.865 37.5259 143.865 62.0078 143.865 62.0078L104.798 77.2065L98.9387 99.3129L51.1272 112.171C51.1272 112.171 54.5343 137.045 68.277 141.392C77.092 144.181 134.872 150.682 134.872 150.682L123.903 200H159.328Z" fill="#EEB336"/>
</svg>
